<svg xmlns="http://www.w3.org/2000/svg" fill-rule="evenodd" stroke-linejoin="round" stroke-miterlimit="2" clip-rule="evenodd" viewBox="0 0 64 64" id="video-file"><path d="M1822,343.657C1822,342.066 1821.37,340.539 1820.24,339.414L1812.59,331.757C1811.46,330.632 1809.93,330 1808.34,330C1803.73,330 1790.66,330 1784,330C1782.41,330 1780.88,330.632 1779.76,331.757C1778.63,332.883 1778,334.409 1778,336C1778,346.308 1778,373.692 1778,384C1778,387.314 1780.69,390 1784,390L1816,390C1817.59,390 1819.12,389.368 1820.24,388.243C1821.37,387.117 1822,385.591 1822,384L1822,343.657ZM1818,343.657L1818,384C1818,384.53 1817.79,385.039 1817.41,385.414C1817.04,385.789 1816.53,386 1816,386L1784,386C1782.89,386 1782,385.105 1782,384C1782,373.692 1782,346.308 1782,336C1782,335.47 1782.21,334.961 1782.59,334.586C1782.96,334.211 1783.47,334 1784,334L1808.34,334C1808.87,334 1809.38,334.211 1809.76,334.586C1809.76,334.586 1817.41,342.243 1817.41,342.243C1817.79,342.618 1818,343.126 1818,343.657ZM1794.06,348.304C1793.44,347.919 1792.67,347.898 1792.03,348.251C1791.39,348.603 1791,349.273 1791,350L1791,370C1791,370.727 1791.39,371.397 1792.03,371.749C1792.67,372.102 1793.44,372.081 1794.06,371.696L1810.06,361.696C1810.64,361.331 1811,360.69 1811,360C1811,359.31 1810.64,358.669 1810.06,358.304L1794.06,348.304ZM1795,353.609L1805.23,360C1805.23,360 1795,366.391 1795,366.391L1795,353.609Z" transform="translate(-1768 -328)"></path></svg>